<?xml version="1.0" standalone="no"?>
<!DOCTYPE svg PUBLIC "-//W3C//DTD SVG 20010904//EN"
 "http://www.w3.org/TR/2001/REC-SVG-20010904/DTD/svg10.dtd">
<svg version="1.0" xmlns="http://www.w3.org/2000/svg"
 width="1970.000000pt" height="2030.000000pt" viewBox="0 0 1970.000000 2030.000000"
 preserveAspectRatio="xMidYMid meet">
<metadata>
Created by potrace 1.16, written by Peter Selinger 2001-2019
</metadata>
<g transform="translate(0.000000,2030.000000) scale(0.100000,-0.100000)"
fill="#000000" stroke="none">
<path d="M14023 20183 c-411 -316 -872 -732 -1358 -1224 -817 -828 -1446
-1618 -1890 -2374 -95 -161 -310 -583 -302 -591 12 -13 1091 -328 1482 -434
261 -70 522 -135 694 -170 l144 -30 111 117 c1200 1272 2889 2823 3857 3543
349 260 509 355 804 476 118 49 211 92 207 96 -11 10 -480 152 -707 214 -758
206 -1784 386 -2615 459 -96 8 -201 17 -232 20 l-57 5 -138 -107z"/>
<path d="M17925 18803 c-22 -15 -137 -91 -255 -169 -497 -328 -1232 -875
-1950 -1453 -966 -777 -1669 -1420 -1941 -1777 l-70 -92 43 -71 c130 -218 693
-745 1132 -1060 251 -180 429 -268 562 -278 l72 -6 143 75 c1302 678 3191
2402 3838 3501 59 101 123 226 150 295 11 26 26 64 35 84 l16 36 -113 90
c-305 243 -629 453 -952 617 -200 102 -352 164 -489 200 -149 38 -174 39 -221
8z"/>
<path d="M6920 15583 c-107 -119 -330 -365 -494 -547 -2890 -3196 -4732 -5574
-5261 -6790 -127 -291 -177 -482 -179 -676 -1 -137 14 -208 61 -289 126 -218
369 -252 823 -116 518 155 1194 475 2885 1365 1113 586 1651 860 2090 1068
870 410 1464 611 1744 589 105 -8 259 -49 332 -88 107 -57 177 -143 208 -254
22 -78 31 -224 22 -329 -24 -249 -686 -4445 -705 -4463 -7 -7 -446 -15 -2496
-48 -2570 -41 -3646 -64 -4195 -91 l-130 -6 -112 -212 c-62 -116 -183 -341
-268 -501 -208 -386 -530 -1036 -654 -1318 -580 -1313 -720 -2182 -438 -2712
76 -143 150 -172 420 -162 374 13 873 118 2717 572 1162 286 1545 377 2285
545 615 139 997 230 1990 470 1678 406 2270 538 2815 625 124 20 253 43 288
52 148 37 292 131 468 307 374 375 674 960 748 1457 10 68 19 245 26 499 29
1123 44 1551 75 2080 165 2797 603 4937 1320 6450 46 96 92 209 104 250 121
444 48 1009 -167 1276 -103 127 -356 282 -557 339 -268 77 -556 83 -905 19
-163 -29 -400 -93 -530 -141 -209 -78 -682 -294 -1885 -863 -1350 -638 -1933
-904 -2380 -1085 -156 -63 -377 -145 -392 -145 -12 0 39 353 98 690 22 124
112 586 200 1027 107 539 172 896 199 1085 22 155 40 283 40 285 0 15 -41 -27
-210 -214z"/>
</g>
</svg>
